<?xml version="1.0" encoding="iso-8859-1"?>
<!-- Uploaded to: SVG Repo, www.svgrepo.com, Generator: SVG Repo Mixer Tools -->
<svg height="800px" width="800px" version="1.1" id="Layer_1" xmlns="http://www.w3.org/2000/svg" xmlns:xlink="http://www.w3.org/1999/xlink" 
	 viewBox="0 0 504.131 504.131" xml:space="preserve">
<circle style="fill:#99A8C1;" cx="252.065" cy="252.069" r="252.062"/>
<path style="fill:#70869B;" d="M73.834,73.823c98.43-98.43,258.032-98.43,356.462,0c98.43,98.446,98.446,258.032,0,356.478"/>
<path style="fill:#1D2321;" d="M316.388,115.531H299.5c0.165-1.016,0.315-2.048,0.315-3.119c0-10.602-8.602-19.204-19.204-19.204
	h-57.108c-10.602,0-19.204,8.602-19.204,19.204c0,1.079,0.15,2.111,0.323,3.119h-16.904c-26.096,0-47.262,18.046-47.262,40.29
	v136.523c0,22.26,21.165,96.248,47.262,96.248h128.654c26.104,0,47.262-73.988,47.262-96.248V155.821
	C363.65,133.577,342.493,115.531,316.388,115.531z M336.742,200.806v8.263c0,27.372-22.197,49.554-49.569,49.554h-70.215
	c-27.372,0-49.569-22.181-49.569-49.554v-8.263c0-27.388-2.584-49.569,24.781-49.569h119.784
	C339.326,151.237,336.742,173.426,336.742,200.806z"/>
<g>
	<path style="fill:#363D3B;" d="M316.388,115.531H299.5c0.165-1.016,0.315-2.048,0.315-3.119c0-10.602-8.602-19.204-19.204-19.204
		h-57.108c-10.602,0-19.204,8.602-19.204,19.204c0,1.079,0.15,2.111,0.323,3.119h-16.904c-20.827,0-38.471,11.492-44.765,27.427
		l25.781,25.797c2.316-10.705,8.271-17.526,23.418-17.526h119.784c27.372,0,24.781,22.181,24.781,49.569v8.263
		c0,27.372-22.197,49.554-49.569,49.554h-28.546l90.884,90.892c8.72-21.449,14.139-45.907,14.139-57.171V155.821
		C363.65,133.577,342.493,115.531,316.388,115.531z"/>
	<path style="fill:#363D3B;" d="M234.342,88.285c5.435,0,9.846-4.403,9.846-9.846V62.685c0-5.427-4.411-9.846-9.846-9.846
		c-5.435,0-9.846,4.419-9.846,9.846v15.754C224.496,83.881,228.907,88.285,234.342,88.285z"/>
	<path style="fill:#363D3B;" d="M269.789,88.285c5.435,0,9.846-4.403,9.846-9.846V62.685c0-5.427-4.411-9.846-9.846-9.846
		c-5.435,0-9.846,4.419-9.846,9.846v15.754C259.942,83.881,264.353,88.285,269.789,88.285z"/>
</g>
<g>
	
		<ellipse transform="matrix(-0.7071 -0.7071 0.7071 -0.7071 85.1781 678.5401)" style="fill:#99A8C1;" cx="183.119" cy="321.629" rx="19.692" ry="12.469"/>
	
		<ellipse transform="matrix(-0.7071 0.7071 -0.7071 -0.7071 775.3799 322.1935)" style="fill:#99A8C1;" cx="320.962" cy="321.683" rx="19.692" ry="12.469"/>
</g>
<g>
	<path style="fill:#1D2321;" d="M261.738,344.789c2.119,3.797,0.733,8.602-3.056,10.705l-134.215,74.705
		c-3.781,2.111-8.594,0.756-10.713-3.064l0,0c-2.111-3.797-0.74-8.602,3.056-10.705l134.215-74.689
		C254.807,339.621,259.612,340.992,261.738,344.789L261.738,344.789z"/>
	<path style="fill:#1D2321;" d="M242.4,344.789c-2.119,3.797-0.74,8.602,3.056,10.705l134.215,74.713
		c3.789,2.111,8.594,0.756,10.713-3.064l0,0c2.111-3.797,0.74-8.602-3.056-10.705l-134.215-74.689
		C249.324,339.621,244.527,340.992,242.4,344.789L242.4,344.789z"/>
	<path style="fill:#1D2321;" d="M367.588,419.454c0,1.812-1.465,3.277-3.277,3.277H139.819c-1.812,0-3.285-1.465-3.285-3.277l0,0
		c0-1.812,1.473-3.277,3.285-3.277h224.492C366.123,416.177,367.588,417.642,367.588,419.454L367.588,419.454z"/>
	<path style="fill:#1D2321;" d="M334.293,400.1c0,1.804-1.048,3.277-2.339,3.277H172.17c-1.292,0-2.339-1.481-2.339-3.277l0,0
		c0-1.812,1.048-3.293,2.339-3.293h159.783C333.253,396.808,334.293,398.281,334.293,400.1L334.293,400.1z"/>
</g>
<path style="fill:#99A8C1;" d="M270.277,124.227c0,5.167-4.183,9.358-9.358,9.358h-17.723c-5.167,0-9.358-4.183-9.358-9.358l0,0
	c0-5.167,4.183-9.358,9.358-9.358h17.723C266.094,114.869,270.277,119.052,270.277,124.227L270.277,124.227z"/>
</svg>